<?xml version="1.0" standalone="no"?>
<!DOCTYPE svg PUBLIC "-//W3C//DTD SVG 20010904//EN"
 "http://www.w3.org/TR/2001/REC-SVG-20010904/DTD/svg10.dtd">
<svg version="1.0" xmlns="http://www.w3.org/2000/svg"
 width="457.000000pt" height="133.000000pt" viewBox="0 0 457.000000 133.000000"
 preserveAspectRatio="xMidYMid meet">

<g transform="translate(0.000000,133.000000) scale(0.100000,-0.100000)"
fill="#000000" stroke="none">
<path d="M1740 1023 c-76 -12 -73 -8 -65 -76 3 -34 10 -66 13 -72 8 -13 132 2
132 15 0 5 -16 6 -36 3 -25 -4 -39 -2 -45 8 -16 25 -10 35 29 46 l37 10 -36 2
c-58 2 -66 51 -9 51 16 0 32 5 35 10 6 10 -8 11 -55 3z"/>
<path d="M1874 1014 c4 -9 11 -37 18 -63 23 -94 45 -105 79 -38 12 23 31 55
41 70 11 16 17 31 13 35 -8 8 -45 -35 -45 -53 0 -7 -6 -18 -14 -24 -11 -10
-16 -3 -26 39 -11 46 -14 50 -42 50 -24 0 -29 -3 -24 -16z"/>
<path d="M2102 927 c-58 -59 -63 -70 -28 -61 28 7 66 -10 66 -30 0 -7 11 -18
25 -24 l25 -12 0 84 c0 67 -3 85 -16 90 -9 3 -17 6 -18 6 -1 0 -25 -24 -54
-53z m38 -22 c0 -14 -6 -25 -13 -25 -21 0 -27 11 -16 31 14 27 29 23 29 -6z"/>
<path d="M1507 952 c-35 -39 -17 -64 56 -77 45 -9 44 -29 -1 -33 -37 -4 -43
-22 -7 -22 55 0 94 36 79 73 -6 16 -13 19 -66 31 -41 9 -38 41 2 33 17 -4 30
-2 30 3 0 18 -76 11 -93 -8z"/>
<path d="M1801 759 c-23 -46 -31 -75 -30 -113 1 -62 17 -111 18 -56 1 37 39
113 56 114 15 1 55 -84 56 -119 l0 -30 10 25 c19 45 6 134 -27 186 -16 26 -34
49 -40 51 -7 2 -26 -24 -43 -58z"/>
<path d="M2504 723 c3 -21 6 -55 6 -75 0 -34 3 -38 25 -38 21 0 25 5 25 30 0
28 3 30 35 30 19 0 35 5 35 10 0 6 -16 10 -35 10 -32 0 -35 2 -35 29 0 28 3
30 43 34 27 2 16 4 -32 5 l-74 2 7 -37z"/>
<path d="M2712 753 c-21 -8 -43 -61 -36 -87 9 -39 39 -59 89 -60 57 -1 89 27
89 80 0 48 -31 74 -88 73 -22 0 -47 -3 -54 -6z m80 -38 c10 -42 -4 -90 -27
-90 -25 0 -38 50 -24 93 14 41 40 39 51 -3z"/>
<path d="M2900 696 c0 -71 8 -84 64 -93 24 -4 44 0 61 11 23 15 25 22 23 84
l-1 67 -6 -63 c-6 -62 -18 -82 -51 -82 -29 0 -40 23 -40 82 0 55 -1 58 -25 58
-24 0 -25 -2 -25 -64z"/>
<path d="M3100 683 c4 -63 5 -69 8 -30 2 26 7 47 11 47 5 0 21 -18 36 -40 33
-47 50 -59 76 -53 17 5 19 15 17 82 -1 54 -3 63 -5 29 -2 -27 -8 -48 -12 -48
-5 0 -24 20 -42 45 -27 35 -40 44 -64 45 l-30 0 5 -77z"/>
<path d="M3300 685 l0 -75 68 0 c82 0 102 15 102 78 0 55 -25 72 -107 72 l-63
0 0 -75z m98 53 c17 -17 15 -93 -3 -108 -29 -24 -45 -4 -45 53 0 30 3 57 7 60
10 11 28 8 41 -5z"/>
<path d="M3561 738 c-5 -13 -18 -47 -30 -75 -11 -29 -17 -53 -12 -53 5 0 11 7
15 15 7 20 62 19 74 -1 5 -9 19 -14 34 -12 l25 3 -26 70 c-21 54 -32 71 -49
73 -15 2 -25 -3 -31 -20z m27 -61 c3 -21 -1 -27 -16 -27 -27 0 -32 9 -20 36
14 31 32 26 36 -9z"/>
<path d="M3728 750 c20 -8 22 -16 22 -75 0 -63 1 -65 25 -65 24 0 25 2 25 65
0 59 2 67 23 75 16 6 4 9 -48 9 -52 0 -64 -3 -47 -9z"/>
<path d="M3880 685 l0 -75 30 0 30 0 0 75 0 75 -30 0 -30 0 0 -75z"/>
<path d="M4005 735 c-32 -31 -32 -66 -1 -102 20 -23 32 -28 71 -28 37 0 51 5
66 24 25 31 25 85 -1 111 -30 30 -103 28 -135 -5z m90 -50 c0 -53 -2 -60 -20
-60 -15 0 -22 9 -28 35 -11 45 6 93 31 88 14 -3 17 -14 17 -63z"/>
<path d="M4212 683 c1 -55 3 -64 5 -30 2 26 8 47 12 47 4 0 22 -20 40 -45 39
-55 43 -57 74 -46 22 9 24 13 19 78 -4 79 -12 97 -12 30 0 -26 -4 -47 -9 -47
-5 0 -24 20 -42 45 -26 33 -41 44 -61 45 l-28 0 2 -77z"/>
<path d="M486 708 c-8 -18 -24 -54 -35 -80 -11 -27 -16 -48 -12 -48 5 0 11 7
15 15 3 9 18 15 40 15 21 0 36 -6 40 -15 6 -16 56 -21 56 -7 0 5 -13 40 -28
78 -33 80 -55 93 -76 42z m29 -56 c4 -16 2 -24 -10 -28 -26 -10 -37 9 -25 41
11 30 23 26 35 -13z"/>
<path d="M853 728 c-17 -27 -61 -148 -53 -148 4 0 10 7 14 15 3 9 18 15 40 15
21 0 36 -6 40 -15 6 -16 56 -21 56 -7 0 5 -13 40 -28 78 -28 67 -51 89 -69 62z
m15 -99 c-30 -19 -43 -2 -27 38 l11 28 15 -29 c12 -24 13 -30 1 -37z"/>
<path d="M220 655 l0 -76 81 3 c64 2 84 7 93 20 8 13 6 22 -8 37 -14 16 -15
23 -6 41 20 37 -2 50 -86 50 l-74 0 0 -75z m108 39 c2 -13 -4 -24 -13 -28 -24
-9 -35 1 -35 30 0 21 4 25 23 22 13 -2 23 -11 25 -24z m6 -60 c8 -21 -11 -44
-35 -44 -14 0 -19 7 -19 30 0 25 4 30 24 30 13 0 27 -7 30 -16z"/>
<path d="M630 655 l0 -75 65 0 c39 0 65 4 65 11 0 6 -14 9 -32 7 l-33 -3 -3
68 c-3 67 -3 67 -32 67 l-30 0 0 -75z"/>
<path d="M1030 669 c0 -52 -3 -62 -20 -66 -32 -8 -23 -23 13 -23 47 0 57 15
57 87 0 61 -1 63 -25 63 -24 0 -25 -3 -25 -61z"/>
<path d="M1130 655 c0 -73 1 -75 25 -75 24 0 25 2 25 75 0 73 -1 75 -25 75
-24 0 -25 -2 -25 -75z"/>
<path d="M2080 318 c-132 -57 -311 -63 -430 -15 -35 15 -66 24 -69 21 -3 -3 3
-22 14 -42 16 -29 33 -42 80 -62 52 -21 75 -24 175 -24 116 0 170 12 228 50
18 12 21 18 12 29 -14 17 -3 38 16 31 8 -3 17 1 21 10 9 23 2 23 -47 2z m-436
-36 c8 -13 -11 -35 -23 -28 -16 10 -14 36 3 36 8 0 17 -4 20 -8z m432 -3 c10
-17 -13 -36 -27 -22 -12 12 -4 33 11 33 5 0 12 -5 16 -11z m-386 -25 c0 -14
-21 -19 -33 -7 -9 9 13 34 24 27 5 -3 9 -12 9 -20z m344 8 c8 -13 -11 -35 -23
-28 -16 10 -14 36 3 36 8 0 17 -4 20 -8z m-298 -13 c8 -14 -18 -31 -30 -19 -9
9 0 30 14 30 5 0 12 -5 16 -11z m254 -15 c0 -9 -7 -14 -17 -12 -10 1 -24 -1
-31 -6 -17 -10 -37 8 -27 24 4 6 15 8 25 5 10 -3 21 -1 25 5 8 14 25 3 25 -16z
m-200 1 c0 -8 -9 -15 -20 -15 -20 0 -26 11 -13 23 12 13 33 7 33 -8z m50 -11
c0 -8 -7 -14 -15 -14 -15 0 -21 21 -9 33 10 9 24 -2 24 -19z m50 0 c0 -8 -7
-14 -15 -14 -15 0 -21 21 -9 33 10 9 24 -2 24 -19z"/>
</g>
</svg>
